<?xml version="1.0" standalone="no"?>
<!DOCTYPE svg PUBLIC "-//W3C//DTD SVG 20010904//EN"
 "http://www.w3.org/TR/2001/REC-SVG-20010904/DTD/svg10.dtd">
<svg version="1.0" xmlns="http://www.w3.org/2000/svg"
 width="1200.000000pt" height="1200.000000pt" viewBox="0 0 1200.000000 1200.000000"
 preserveAspectRatio="xMidYMid meet">

<g transform="translate(0.000000,1200.000000) scale(0.100000,-0.100000)"
fill="#000000" stroke="none">
<path d="M6139 10147 c-25 -7 -68 -26 -96 -42 -28 -17 -640 -550 -1359 -1185
l-1309 -1155 -1255 -5 -1256 -5 -76 -37 c-91 -45 -147 -103 -191 -196 l-32
-67 0 -1616 0 -1615 37 -76 c45 -91 103 -147 196 -191 l67 -32 1255 -5 1255
-5 1308 -1155 c1486 -1312 1388 -1235 1556 -1235 87 0 102 3 163 32 93 44 151
100 196 191 l37 76 0 4016 0 4016 -37 76 c-68 136 -188 216 -336 224 -45 2
-96 -1 -123 -9z"/>
<path d="M7746 8230 c-63 -16 -153 -70 -197 -117 -22 -24 -55 -74 -72 -111
-29 -61 -32 -76 -32 -162 0 -86 3 -101 31 -160 24 -50 190 -256 738 -912 l706
-848 -706 -847 c-548 -657 -714 -863 -738 -913 -28 -59 -31 -74 -31 -161 0
-90 2 -99 37 -171 45 -91 103 -147 196 -191 61 -29 76 -32 163 -32 89 0 99 2
170 37 40 20 88 52 106 70 17 18 320 380 673 803 352 424 645 770 650 770 5 0
298 -346 650 -770 353 -423 656 -785 673 -803 18 -18 66 -50 106 -70 71 -35
81 -37 170 -37 87 0 102 3 163 32 93 44 151 100 196 191 35 72 37 81 37 171 0
87 -3 102 -31 161 -24 50 -190 256 -738 913 l-706 847 706 848 c548 656 714
862 738 912 28 59 31 74 31 160 0 86 -3 101 -32 162 -44 93 -100 151 -191 196
-72 35 -81 37 -172 37 -91 0 -100 -2 -171 -37 -40 -20 -88 -52 -106 -70 -17
-18 -320 -379 -673 -803 -352 -423 -645 -770 -650 -770 -5 0 -298 347 -650
770 -353 424 -656 785 -673 803 -18 18 -64 49 -103 68 -59 30 -85 36 -150 39
-44 3 -96 0 -118 -5z"/>
</g>
</svg>
